<svg xmlns="http://www.w3.org/2000/svg" width="45" height="41" viewBox="0 0 45 41"><g><g><path fill="#fff" d="M11.251 40.995l-11.25-20.5L11.252-.002H33.75L45 20.496l-11.25 20.5z"/></g><g><path fill="#ff0036" d="M25.737 25.993c.025 1.682-1.731 3.147-4.546 3.147-2.47 0-4.54-1.103-4.54-2.682 0-2.384 1.714-3.154 4.184-3.154.27 0 .516-.007.771-.007-.338-.321-.61-.6-.61-1.087 0-.292.093-.568.225-.815-.134.009-.271.018-.412.018-2.029 0-3.21-1.4-3.21-3.157 0-1.719 1.798-3.26 3.954-3.26h4.25l-.949.959h-1.116c.788.442 1.206 1.354 1.206 2.36 0 .923-.52 1.666-1.255 2.231-.718.552-.854.782-.854 1.25 0 .4.857.995 1.252 1.285 1.372 1.012 1.63 1.649 1.65 2.912zm-4.106-5.282c1.087.03 1.711-.829 1.524-2.226-.187-1.395-.895-2.445-1.982-2.478-1.087-.03-2.04.942-1.85 2.338.186 1.397 1.22 2.333 2.308 2.366zm2.553 5.43c0-.133-.004-.27-.051-.393-.545-1.334-2.298-1.334-2.883-1.334-1.572 0-2.871.58-2.871 1.673 0 1.112 1.159 2.02 2.763 2.02 2.256 0 3.042-.85 3.042-1.966zm6.812-8.457H28.95v2.026h-.68v-2.026H26.23v-.664h2.042v-2.022h.679v2.022h2.045z"/></g></g></svg>