<svg xmlns="http://www.w3.org/2000/svg" width="45" height="41" viewBox="0 0 45 41"><g><g><path fill="#fff" d="M11.251 40.995l-11.25-20.5L11.252-.002H33.75L45 20.496l-11.25 20.5z"/></g><g><path fill="#ff0036" d="M31.726 16.532a7.393 7.393 0 0 1-2.088.564 3.599 3.599 0 0 0 1.598-1.975 7.393 7.393 0 0 1-2.307.866 3.657 3.657 0 0 0-2.653-1.127c-2.008 0-3.635 1.597-3.635 3.57 0 .276.032.55.094.811-3.02-.15-5.7-1.569-7.492-3.728a3.5 3.5 0 0 0-.492 1.794c0 1.237.642 2.33 1.617 2.969a3.656 3.656 0 0 1-1.646-.447v.046c0 1.729 1.252 3.17 2.915 3.498a3.688 3.688 0 0 1-1.642.06c.463 1.419 1.805 2.45 3.396 2.478a7.372 7.372 0 0 1-4.514 1.528c-.294 0-.583-.016-.867-.05a10.427 10.427 0 0 0 5.571 1.603c6.686 0 10.341-5.437 10.341-10.15 0-.156-.003-.31-.01-.462a7.333 7.333 0 0 0 1.814-1.848z"/></g></g></svg>