<svg xmlns="http://www.w3.org/2000/svg" width="76" height="68"><defs><clipPath id="a"><path fill="#fff" d="M19.13 67.993L.38 33.994l18.75-34h37.497l18.748 34-18.748 33.999z"/></clipPath></defs><path fill="#ff0036" d="M19.13 67.993L.38 33.994l18.75-34h37.497l18.748 34-18.748 33.999z"/><path fill="none" stroke="#ff0036" stroke-linecap="round" stroke-linejoin="round" stroke-miterlimit="50" stroke-width="2" d="M19.13 67.993v0L.38 33.994v0l18.75-34v0h37.497v0l18.748 34v0L56.627 67.993v0z" clip-path="url(&quot;#a&quot;)"/><path fill="#ff0036" d="M38.003 38.552c-1.202 0-2.333-.466-2.72-1.19 0 0-.646 2.513-.783 2.998-.482 1.715-1.9 3.432-2.01 3.57-.076.097-.247.067-.264-.063-.031-.218-.393-2.38.033-4.144.214-.886 1.42-6.128 1.42-6.128s-.344-.511-.344-1.54c0-1.618.957-2.725 2.149-2.725 1.012 0 1.5.646 1.5 1.537 0 .997-.647 2.49-.982 3.872-.28 1.157.591 2.001 1.756 2.001 2.11 0 3.53-2.555 3.53-5.702 0-2.388-1.643-4.235-4.632-4.235-3.376 0-5.36 2.254-5.36 5.411 0 .951.279 1.491.727 2.007.206.24.234.336.16.61-.055.2-.289.684-.34.875-.074.278-.304.375-.558.272-1.556-.621-2.28-2.29-2.28-4.168 0-3.096 2.667-6.813 7.957-6.813 4.251 0 7.049 3.015 7.049 6.25 0 4.277-2.429 7.305-6.008 7.305z"/></svg>